<svg xmlns="http://www.w3.org/2000/svg" width="5" height="9" viewBox="0 0 5 9"><g><g><path fill="#ff0" d="M.456 3.158L3.218.398C3.676-.06 4.344-.135 4.71.231c.366.365.292 1.033-.166 1.49L1.811 4.455l2.782 2.781c.469.468.545 1.152.17 1.527-.375.374-1.059.298-1.528-.17L.407 5.766c-.411-.411-.52-.988-.287-1.376-.15-.372-.028-.869.336-1.232z"/><path fill="#fff" d="M.456 3.158L3.218.398C3.676-.06 4.344-.135 4.71.231c.366.365.292 1.033-.166 1.49L1.811 4.455l2.782 2.781c.469.468.545 1.152.17 1.527-.375.374-1.059.298-1.528-.17L.407 5.766c-.411-.411-.52-.988-.287-1.376-.15-.372-.028-.869.336-1.232z"/></g></g></svg>