<svg xmlns="http://www.w3.org/2000/svg" width="6" height="9" viewBox="0 0 6 9"><g><g><path fill="#ff0" d="M1.175 1.754C.717 1.296.643.629 1.009.263c.366-.366 1.034-.292 1.492.165L5.263 3.19c.363.364.485.86.336 1.232.233.388.124.965-.287 1.376L2.483 8.624c-.468.469-1.152.545-1.527.17s-.299-1.058.17-1.527l2.782-2.781z"/><path fill="#fff" d="M1.175 1.754C.717 1.296.643.629 1.009.263c.366-.366 1.034-.292 1.492.165L5.263 3.19c.363.364.485.86.336 1.232.233.388.124.965-.287 1.376L2.483 8.624c-.468.469-1.152.545-1.527.17s-.299-1.058.17-1.527l2.782-2.781z"/></g></g></svg>