<svg width="69" height="103" viewBox="0 0 69 103" fill="none" xmlns="http://www.w3.org/2000/svg">
<path d="M46.84 70.624C46.84 67.84 46.216 65.392 44.968 63.28C43.72 61.072 41.56 59.248 38.488 57.808C35.416 56.368 31.288 55.264 26.104 54.496C20.92 53.728 14.392 53.344 6.52 53.344C7.576 44.416 8.44 35.344 9.112 26.128C9.784 16.912 10.312 8.272 10.696 0.207997H64.696V18.208H28.696C28.504 21.664 28.264 25.024 27.976 28.288C27.784 31.456 27.544 34.24 27.256 36.64C41.272 37.6 51.592 40.912 58.216 46.576C64.936 52.144 68.296 59.92 68.296 69.904C68.296 74.512 67.48 78.784 65.848 82.72C64.216 86.656 61.768 90.064 58.504 92.944C55.24 95.824 51.112 98.08 46.12 99.712C41.224 101.344 35.464 102.16 28.84 102.16C26.248 102.16 23.512 101.968 20.632 101.584C17.848 101.296 15.112 100.864 12.424 100.288C9.832 99.808 7.48 99.28 5.368 98.704C3.256 98.128 1.624 97.552 0.472 96.976L4.36 79.264C6.76 80.32 9.928 81.376 13.864 82.432C17.8 83.392 22.504 83.872 27.976 83.872C34.6 83.872 39.4 82.576 42.376 79.984C45.352 77.296 46.84 74.176 46.84 70.624Z" fill="#C3C3C3"/>
</svg>
