<svg width="72" height="104" viewBox="0 0 72 104" fill="none" xmlns="http://www.w3.org/2000/svg">
<path d="M34.456 54.056C32.344 54.056 30.088 54.248 27.688 54.632C25.288 55.016 23.416 55.544 22.072 56.216C22.072 56.6 22.024 57.176 21.928 57.944C21.928 58.712 21.928 59.384 21.928 59.96C21.928 63.416 22.168 66.68 22.648 69.752C23.128 72.824 23.944 75.512 25.096 77.816C26.248 80.12 27.784 81.944 29.704 83.288C31.624 84.536 34.024 85.16 36.904 85.16C39.304 85.16 41.32 84.68 42.952 83.72C44.68 82.664 46.072 81.368 47.128 79.832C48.28 78.296 49.096 76.616 49.576 74.792C50.152 72.872 50.44 71.048 50.44 69.32C50.44 64.424 49.192 60.68 46.696 58.088C44.296 55.4 40.216 54.056 34.456 54.056ZM37.192 37.352C43.432 37.352 48.712 38.216 53.032 39.944C57.448 41.576 61.048 43.832 63.832 46.712C66.616 49.592 68.632 52.952 69.88 56.792C71.128 60.632 71.752 64.712 71.752 69.032C71.752 72.872 71.032 76.808 69.592 80.84C68.248 84.872 66.136 88.52 63.256 91.784C60.472 95.048 56.872 97.736 52.456 99.848C48.136 101.96 43 103.016 37.048 103.016C25.048 103.016 15.928 99.224 9.688 91.64C3.448 84.056 0.328 73.592 0.328 60.248C0.328 50.648 1.816 42.152 4.792 34.76C7.768 27.368 11.992 21.176 17.464 16.184C23.032 11.096 29.704 7.256 37.48 4.664C45.352 1.976 54.184 0.583997 63.976 0.487998C64.168 3.46399 64.36 6.39199 64.552 9.272C64.744 12.056 64.936 14.984 65.128 18.056C60.232 18.152 55.624 18.632 51.304 19.496C47.08 20.264 43.192 21.512 39.64 23.24C36.184 24.968 33.16 27.224 30.568 30.008C27.976 32.696 25.96 36.008 24.52 39.944C26.632 38.984 28.792 38.312 31 37.928C33.208 37.544 35.272 37.352 37.192 37.352Z" fill="#00AEC7"/>
</svg>
