<svg width="85" height="67" viewBox="0 0 85 67" fill="none" xmlns="http://www.w3.org/2000/svg">
<path d="M74.9317 41.2595C74.9317 37.5679 73.6459 34.1773 71.4985 31.509C72.5243 30.2296 73.1393 28.6067 73.1393 26.8392C73.1393 23.1298 70.4361 20.0532 66.8926 19.4682C65.8728 14.199 62.007 9.94476 56.958 8.37091C56.9582 8.35356 56.9593 8.3364 56.9593 8.31905C56.9593 3.72462 53.2347 0 48.6403 0C45.9676 0 43.5911 1.26172 42.0691 3.2205C40.5472 1.26172 38.1706 0 35.498 0C30.9036 0 27.179 3.72462 27.179 8.31905C27.179 8.3364 27.1801 8.35356 27.1803 8.37091C22.1313 9.94476 18.2655 14.199 17.2457 19.4682C13.7021 20.0534 10.999 23.1298 10.999 26.8392C10.999 28.6065 11.614 30.2296 12.6398 31.509C10.4926 34.1773 9.20654 37.5681 9.20654 41.2595C9.20654 48.4609 14.0973 54.5189 20.7382 56.2961C21.7093 62.3634 26.967 66.9997 33.308 66.9997C36.7028 66.9997 39.7869 65.6709 42.0693 63.5052C44.3517 65.6709 47.4359 66.9997 50.8306 66.9997C57.1717 66.9997 62.4294 62.3636 63.4005 56.2961C70.041 54.5191 74.9317 48.4609 74.9317 41.2595Z" fill="url(#paint0_linear)"/>
<path d="M59.3663 56.8251C67.9629 56.8251 74.9318 49.8562 74.9318 41.2596C74.9318 32.663 67.9629 25.694 59.3663 25.694C50.7697 25.694 43.8008 32.663 43.8008 41.2596C43.8008 49.8562 50.7697 56.8251 59.3663 56.8251Z" fill="url(#paint1_linear)"/>
<path d="M46.0382 22.2448C46.0382 19.632 45.3481 17.1806 44.1407 15.0621C42.6306 17.1602 40.1692 18.5278 37.3867 18.5278C34.6077 18.5278 32.1491 17.1636 30.6386 15.07C29.2019 14.034 28.1082 12.5522 27.5634 10.8256C23.8525 12.4549 20.953 15.5896 19.6387 19.4579C21.6968 19.781 23.4749 20.9446 24.6137 22.5858C26.5585 23.9351 27.8331 26.1826 27.8331 28.7288C27.8331 31.3336 26.4991 33.6252 24.4785 34.9626C26.5617 36.117 28.958 36.7748 31.5083 36.7748C39.5329 36.7746 46.0382 30.2695 46.0382 22.2448Z" fill="url(#paint2_linear)"/>
<path d="M35.4973 16.6381C40.0918 16.6381 43.8163 12.9135 43.8163 8.31905C43.8163 3.72457 40.0918 0 35.4973 0C30.9028 0 27.1782 3.72457 27.1782 8.31905C27.1782 12.9135 30.9028 16.6381 35.4973 16.6381Z" fill="url(#paint3_linear)"/>
<path d="M52.6291 36.7746C60.6537 36.7746 67.159 30.2693 67.159 22.2446C67.159 14.2199 60.6537 7.71466 52.6291 7.71466C44.6044 7.71466 38.0991 14.2199 38.0991 22.2446C38.0991 30.2693 44.6044 36.7746 52.6291 36.7746Z" fill="url(#paint4_linear)"/>
<path d="M33.7497 27.6851C38.3442 27.6851 42.0688 23.9606 42.0688 19.3661C42.0688 14.7716 38.3442 11.0471 33.7497 11.0471C29.1552 11.0471 25.4307 14.7716 25.4307 19.3661C25.4307 23.9606 29.1552 27.6851 33.7497 27.6851Z" fill="url(#paint5_linear)"/>
<path d="M50.3879 27.6851C54.9824 27.6851 58.7069 23.9606 58.7069 19.3661C58.7069 14.7716 54.9824 11.0471 50.3879 11.0471C45.7934 11.0471 42.0688 14.7716 42.0688 19.3661C42.0688 23.9606 45.7934 27.6851 50.3879 27.6851Z" fill="url(#paint6_linear)"/>
<path d="M50.3879 55.5116C54.9824 55.5116 58.7069 51.7871 58.7069 47.1926C58.7069 42.5981 54.9824 38.8735 50.3879 38.8735C45.7934 38.8735 42.0688 42.5981 42.0688 47.1926C42.0688 51.7871 45.7934 55.5116 50.3879 55.5116Z" fill="url(#paint7_linear)"/>
<path d="M33.7497 55.5116C38.3442 55.5116 42.0688 51.7871 42.0688 47.1926C42.0688 42.5981 38.3442 38.8735 33.7497 38.8735C29.1552 38.8735 25.4307 42.5981 25.4307 47.1926C25.4307 51.7871 29.1552 55.5116 33.7497 55.5116Z" fill="url(#paint8_linear)"/>
<path d="M24.7711 56.8251C33.3677 56.8251 40.3367 49.8562 40.3367 41.2596C40.3367 32.663 33.3677 25.694 24.7711 25.694C16.1745 25.694 9.20557 32.663 9.20557 41.2596C9.20557 49.8562 16.1745 56.8251 24.7711 56.8251Z" fill="url(#paint9_linear)"/>
<path d="M25.6679 56.8249C33.7695 56.8249 40.3372 50.2572 40.3372 42.1556C40.3372 34.0539 33.7695 27.4863 25.6679 27.4863C17.5662 27.4863 10.9985 34.0539 10.9985 42.1556C10.9985 50.2572 17.5662 56.8249 25.6679 56.8249Z" fill="url(#paint10_linear)"/>
<path d="M24.7716 25.6939C25.1383 25.6939 25.5017 25.7075 25.8621 25.7326C25.3273 22.1304 22.2224 19.3663 18.4713 19.3663C14.3443 19.3663 10.9985 22.712 10.9985 26.8391C10.9985 28.6064 11.6136 30.2295 12.6393 31.5089C15.4923 27.9635 19.8666 25.6939 24.7716 25.6939Z" fill="url(#paint11_linear)"/>
<path d="M59.3659 25.6939C64.2709 25.6939 68.6452 27.9635 71.4982 31.5089C72.5239 30.2295 73.139 28.6066 73.139 26.8391C73.139 22.712 69.7932 19.3663 65.6662 19.3663C61.9151 19.3663 58.8103 22.1302 58.2754 25.7326C58.6358 25.7077 58.9992 25.6939 59.3659 25.6939Z" fill="url(#paint12_linear)"/>
<path d="M50.8305 67C57.1715 67 62.4292 62.3639 63.4003 56.2963C70.0412 54.5191 74.9319 48.461 74.9319 41.2598C74.9319 37.5682 73.6461 34.1776 71.4987 31.5093C72.5245 30.2298 73.1395 28.6069 73.1395 26.8394C73.1395 23.1301 70.4363 20.0535 66.8928 19.4684C65.873 14.1992 62.0071 9.945 56.9582 8.37115C56.9584 8.3538 56.9595 8.33664 56.9595 8.31929C56.9595 3.72486 53.2349 0.000244141 48.6405 0.000244141C45.9678 0.000244141 43.5913 1.26196 42.0693 3.22074V63.5056C44.3516 65.6711 47.4357 67 50.8305 67Z" fill="url(#paint13_linear)"/>
<path d="M63.0166 57.9612C63.1801 57.4205 63.3089 56.8645 63.3998 56.2961C63.5415 55.411 63.5933 54.4961 63.5416 53.5597C63.1656 46.7417 57.5614 41.4868 50.733 41.5377C47.3766 41.5628 44.3296 42.8869 42.0688 45.0319V61.968C42.0688 63.0092 43.41 64.6144 43.4147 64.6178C43.7487 64.8414 49.8281 68.7635 56.2525 65.758C61.1491 63.4673 62.7492 58.7886 63.0166 57.9612Z" fill="url(#paint14_linear)"/>
<path d="M42.0693 47.1926C47.4028 47.1926 51.7264 42.8689 51.7264 37.5354C51.7264 32.2019 47.4028 27.8783 42.0693 27.8783C36.7358 27.8783 32.4121 32.2019 32.4121 37.5354C32.4121 42.8689 36.7358 47.1926 42.0693 47.1926Z" fill="url(#paint15_linear)"/>
<path d="M58.1932 56.8249C66.2949 56.8249 72.8626 50.2572 72.8626 42.1556C72.8626 34.0539 66.2949 27.4863 58.1932 27.4863C50.0916 27.4863 43.5239 34.0539 43.5239 42.1556C43.5239 50.2572 50.0916 56.8249 58.1932 56.8249Z" fill="url(#paint16_linear)"/>
<path d="M33.3074 65.3818C39.4452 65.3818 44.4209 60.4061 44.4209 54.2683C44.4209 48.1305 39.4452 43.1548 33.3074 43.1548C27.1695 43.1548 22.1938 48.1305 22.1938 54.2683C22.1938 60.4061 27.1695 65.3818 33.3074 65.3818Z" fill="url(#paint17_linear)"/>
<path d="M5.11232 35.1427H1.65872C0.742698 35.1427 0 35.8854 0 36.8014C0 37.7174 0.742698 38.4601 1.65872 38.4601H5.11232C6.02834 38.4601 6.77104 37.7174 6.77104 36.8014C6.77104 35.8854 6.02834 35.1427 5.11232 35.1427Z" fill="url(#paint18_linear)"/>
<path d="M14.9779 58.96L12.5358 61.402C11.8879 62.0498 10.8378 62.0498 10.19 61.402C9.54214 60.7541 9.54214 59.704 10.19 59.0562L12.6321 56.614C13.28 55.9662 14.3301 55.9662 14.9779 56.614C15.6257 57.2619 15.6257 58.3122 14.9779 58.96Z" fill="url(#paint19_linear)"/>
<path d="M14.9779 14.6431L12.5358 12.201C11.8879 11.5531 10.8378 11.5531 10.19 12.201C9.54214 12.8488 9.54214 13.8989 10.19 14.5467L12.6321 16.9889C13.28 17.6367 14.3301 17.6367 14.9779 16.9889C15.6257 16.3411 15.6257 15.2908 14.9779 14.6431Z" fill="url(#paint20_linear)"/>
<path d="M79.0254 38.4601H82.479C83.395 38.4601 84.1377 37.7174 84.1377 36.8014C84.1377 35.8854 83.395 35.1427 82.479 35.1427H79.0254C78.1094 35.1427 77.3667 35.8854 77.3667 36.8014C77.3667 37.7176 78.1094 38.4601 79.0254 38.4601Z" fill="url(#paint21_linear)"/>
<path d="M69.1602 14.6431L71.6023 12.201C72.2502 11.5531 73.3003 11.5531 73.9481 12.201C74.596 12.8488 74.596 13.8989 73.9481 14.5467L71.506 16.9889C70.8581 17.6367 69.808 17.6367 69.1602 16.9889C68.5124 16.3411 68.5124 15.2908 69.1602 14.6431Z" fill="url(#paint22_linear)"/>
<path d="M69.1602 58.9598L71.6023 61.402C72.2502 62.0498 73.3003 62.0498 73.9481 61.402C74.596 60.7541 74.596 59.704 73.9481 59.0562L71.506 56.614C70.8581 55.9662 69.808 55.9662 69.1602 56.614C68.5124 57.2617 68.5124 58.312 69.1602 58.9598Z" fill="url(#paint23_linear)"/>
<defs>
<linearGradient id="paint0_linear" x1="21.799" y1="15.2381" x2="75.8287" y2="69.268" gradientUnits="userSpaceOnUse">
<stop stop-color="#FFB5B0"/>
<stop offset="1" stop-color="#FF70AC"/>
</linearGradient>
<linearGradient id="paint1_linear" x1="58.6202" y1="33.3632" x2="60.9849" y2="58.3882" gradientUnits="userSpaceOnUse">
<stop stop-color="#FFB5B0" stop-opacity="0"/>
<stop offset="1" stop-color="#FF70AC"/>
</linearGradient>
<linearGradient id="paint2_linear" x1="28.0366" y1="18.9649" x2="9.77595" y2="1.36104" gradientUnits="userSpaceOnUse">
<stop stop-color="#E9EDF5" stop-opacity="0"/>
<stop offset="1" stop-color="white"/>
</linearGradient>
<linearGradient id="paint3_linear" x1="34.9369" y1="9.44007" x2="44.5271" y2="-9.74032" gradientUnits="userSpaceOnUse">
<stop stop-color="#FFB5B0" stop-opacity="0"/>
<stop offset="0.0454" stop-color="#FFAFB0" stop-opacity="0.045"/>
<stop offset="0.2799" stop-color="#FF93AE" stop-opacity="0.28"/>
<stop offset="0.5169" stop-color="#FF80AD" stop-opacity="0.517"/>
<stop offset="0.7559" stop-color="#FF74AC" stop-opacity="0.756"/>
<stop offset="1" stop-color="#FF70AC"/>
</linearGradient>
<linearGradient id="paint4_linear" x1="54.2753" y1="19.2904" x2="68.6601" y2="-6.52296" gradientUnits="userSpaceOnUse">
<stop stop-color="#FFB5B0" stop-opacity="0"/>
<stop offset="0.0454" stop-color="#FFAFB0" stop-opacity="0.045"/>
<stop offset="0.2799" stop-color="#FF93AE" stop-opacity="0.28"/>
<stop offset="0.5169" stop-color="#FF80AD" stop-opacity="0.517"/>
<stop offset="0.7559" stop-color="#FF74AC" stop-opacity="0.756"/>
<stop offset="1" stop-color="#FF70AC"/>
</linearGradient>
<linearGradient id="paint5_linear" x1="33.365" y1="18.276" x2="40.1452" y2="38.6167" gradientUnits="userSpaceOnUse">
<stop stop-color="#FFB5B0" stop-opacity="0"/>
<stop offset="0.0454" stop-color="#FFAFB0" stop-opacity="0.045"/>
<stop offset="0.2799" stop-color="#FF93AE" stop-opacity="0.28"/>
<stop offset="0.5169" stop-color="#FF80AD" stop-opacity="0.517"/>
<stop offset="0.7559" stop-color="#FF74AC" stop-opacity="0.756"/>
<stop offset="1" stop-color="#FF70AC"/>
</linearGradient>
<linearGradient id="paint6_linear" x1="50.7449" y1="18.2764" x2="43.9647" y2="38.6172" gradientUnits="userSpaceOnUse">
<stop stop-color="#FFB5B0" stop-opacity="0"/>
<stop offset="0.0454" stop-color="#FFAFB0" stop-opacity="0.045"/>
<stop offset="0.2799" stop-color="#FF93AE" stop-opacity="0.28"/>
<stop offset="0.5169" stop-color="#FF80AD" stop-opacity="0.517"/>
<stop offset="0.7559" stop-color="#FF74AC" stop-opacity="0.756"/>
<stop offset="1" stop-color="#FF70AC"/>
</linearGradient>
<linearGradient id="paint7_linear" x1="50.744" y1="48.4033" x2="43.9638" y2="28.0625" gradientUnits="userSpaceOnUse">
<stop stop-color="#FFB5B0" stop-opacity="0"/>
<stop offset="0.0454" stop-color="#FFAFB0" stop-opacity="0.045"/>
<stop offset="0.2799" stop-color="#FF93AE" stop-opacity="0.28"/>
<stop offset="0.5169" stop-color="#FF80AD" stop-opacity="0.517"/>
<stop offset="0.7559" stop-color="#FF74AC" stop-opacity="0.756"/>
<stop offset="1" stop-color="#FF70AC"/>
</linearGradient>
<linearGradient id="paint8_linear" x1="33.3592" y1="48.4038" x2="40.1393" y2="28.0632" gradientUnits="userSpaceOnUse">
<stop stop-color="#FFB5B0" stop-opacity="0"/>
<stop offset="0.0454" stop-color="#FFAFB0" stop-opacity="0.045"/>
<stop offset="0.2799" stop-color="#FF93AE" stop-opacity="0.28"/>
<stop offset="0.5169" stop-color="#FF80AD" stop-opacity="0.517"/>
<stop offset="0.7559" stop-color="#FF74AC" stop-opacity="0.756"/>
<stop offset="1" stop-color="#FF70AC"/>
</linearGradient>
<linearGradient id="paint9_linear" x1="28.4646" y1="33.6368" x2="16.1156" y2="59.1232" gradientUnits="userSpaceOnUse">
<stop stop-color="#FFB5B0" stop-opacity="0"/>
<stop offset="1" stop-color="#FF70AC"/>
</linearGradient>
<linearGradient id="paint10_linear" x1="20.2898" y1="38.996" x2="-27.0018" y2="11.2122" gradientUnits="userSpaceOnUse">
<stop stop-color="#E9EDF5" stop-opacity="0"/>
<stop offset="1" stop-color="white"/>
</linearGradient>
<linearGradient id="paint11_linear" x1="18.86" y1="21.4561" x2="17.8092" y2="32.8418" gradientUnits="userSpaceOnUse">
<stop stop-color="#FFB5B0" stop-opacity="0"/>
<stop offset="1" stop-color="#FF70AC"/>
</linearGradient>
<linearGradient id="paint12_linear" x1="64.7896" y1="23.8223" x2="70.1099" y2="30.7189" gradientUnits="userSpaceOnUse">
<stop stop-color="#FFB5B0" stop-opacity="0"/>
<stop offset="0.0454" stop-color="#FFAFB0" stop-opacity="0.045"/>
<stop offset="0.2799" stop-color="#FF93AE" stop-opacity="0.28"/>
<stop offset="0.5169" stop-color="#FF80AD" stop-opacity="0.517"/>
<stop offset="0.7559" stop-color="#FF74AC" stop-opacity="0.756"/>
<stop offset="1" stop-color="#FF70AC"/>
</linearGradient>
<linearGradient id="paint13_linear" x1="54.9873" y1="31.4746" x2="22.2773" y2="45.2681" gradientUnits="userSpaceOnUse">
<stop stop-color="#FFB5B0" stop-opacity="0"/>
<stop offset="0.0454" stop-color="#FFAFB0" stop-opacity="0.045"/>
<stop offset="0.2799" stop-color="#FF93AE" stop-opacity="0.28"/>
<stop offset="0.5169" stop-color="#FF80AD" stop-opacity="0.517"/>
<stop offset="0.7559" stop-color="#FF74AC" stop-opacity="0.756"/>
<stop offset="1" stop-color="#FF70AC"/>
</linearGradient>
<linearGradient id="paint14_linear" x1="55.3831" y1="49.6891" x2="36.1046" y2="68.9676" gradientUnits="userSpaceOnUse">
<stop stop-color="#FFB5B0" stop-opacity="0"/>
<stop offset="0.0454" stop-color="#FFAFB0" stop-opacity="0.045"/>
<stop offset="0.2799" stop-color="#FF93AE" stop-opacity="0.28"/>
<stop offset="0.5169" stop-color="#FF80AD" stop-opacity="0.517"/>
<stop offset="0.7559" stop-color="#FF74AC" stop-opacity="0.756"/>
<stop offset="1" stop-color="#FF70AC"/>
</linearGradient>
<linearGradient id="paint15_linear" x1="42.0694" y1="37.83" x2="42.0694" y2="16.0206" gradientUnits="userSpaceOnUse">
<stop stop-color="#FFB5B0" stop-opacity="0"/>
<stop offset="0.0454" stop-color="#FFAFB0" stop-opacity="0.045"/>
<stop offset="0.2799" stop-color="#FF93AE" stop-opacity="0.28"/>
<stop offset="0.5169" stop-color="#FF80AD" stop-opacity="0.517"/>
<stop offset="0.7559" stop-color="#FF74AC" stop-opacity="0.756"/>
<stop offset="1" stop-color="#FF70AC"/>
</linearGradient>
<linearGradient id="paint16_linear" x1="56.7137" y1="35.3781" x2="44.4967" y2="-20.5837" gradientUnits="userSpaceOnUse">
<stop stop-color="#E9EDF5" stop-opacity="0"/>
<stop offset="1" stop-color="white"/>
</linearGradient>
<linearGradient id="paint17_linear" x1="31.6153" y1="58.183" x2="19.8741" y2="85.3456" gradientUnits="userSpaceOnUse">
<stop stop-color="#E9EDF5" stop-opacity="0"/>
<stop offset="1" stop-color="white"/>
</linearGradient>
<linearGradient id="paint18_linear" x1="0" y1="36.8016" x2="6.77104" y2="36.8016" gradientUnits="userSpaceOnUse">
<stop stop-color="#FF7044"/>
<stop offset="1" stop-color="#F92814"/>
</linearGradient>
<linearGradient id="paint19_linear" x1="10.1634" y1="61.4497" x2="14.9506" y2="56.6625" gradientUnits="userSpaceOnUse">
<stop stop-color="#92F37F"/>
<stop offset="1" stop-color="#4AB272"/>
</linearGradient>
<linearGradient id="paint20_linear" x1="10.1633" y1="12.3099" x2="14.9505" y2="17.0971" gradientUnits="userSpaceOnUse">
<stop stop-color="#FFDA45"/>
<stop offset="1" stop-color="#FFA425"/>
</linearGradient>
<linearGradient id="paint21_linear" x1="84.1377" y1="36.8016" x2="77.3667" y2="36.8016" gradientUnits="userSpaceOnUse">
<stop stop-color="#FF7044"/>
<stop offset="1" stop-color="#F92814"/>
</linearGradient>
<linearGradient id="paint22_linear" x1="73.9363" y1="12.261" x2="69.149" y2="17.0482" gradientUnits="userSpaceOnUse">
<stop stop-color="#FFDA45"/>
<stop offset="1" stop-color="#FFA425"/>
</linearGradient>
<linearGradient id="paint23_linear" x1="73.9362" y1="61.4007" x2="69.1489" y2="56.6135" gradientUnits="userSpaceOnUse">
<stop stop-color="#92F37F"/>
<stop offset="1" stop-color="#4AB272"/>
</linearGradient>
</defs>
</svg>
