<svg width="81" height="78" viewBox="0 0 81 78" fill="none" xmlns="http://www.w3.org/2000/svg">
<path d="M70.3615 28.4734C70.3615 12.7296 56.9609 -0.0296307 40.4424 5.1684e-05C23.9648 0.0298855 10.5433 12.9313 10.6392 28.6427C10.6945 37.7003 15.1853 45.7558 22.1453 50.9343C23.9608 52.2852 25.0242 54.3566 25.0242 56.5525C25.0242 61.2851 29.0478 65.1216 34.011 65.1216H46.9888C51.9522 65.1216 55.9757 61.285 55.9757 56.5525V56.5518C55.9757 54.3579 57.0362 52.2867 58.8504 50.9375C65.8563 45.7269 70.3615 37.6018 70.3615 28.4734Z" fill="url(#paint0_linear)"/>
<path d="M21.5475 6.50903C20.6723 7.19658 19.8385 7.93107 19.0524 8.70947V11.2855C19.0524 12.3547 18.4997 12.8362 17.5896 12.8362C16.8892 12.8362 16.4096 12.5515 16.2269 11.9352C15.6996 12.6348 15.2057 13.3602 14.7451 14.1053C15.4614 14.6929 16.462 14.9443 17.5896 14.9443C19.8322 14.9443 21.5887 13.9524 21.5887 11.2855V7.17689C21.5887 6.94064 21.5745 6.71802 21.5475 6.50903Z" fill="url(#paint1_linear)"/>
<path d="M27.0207 3.48627C26.8412 3.48627 26.6792 3.51807 26.549 3.5953L24.4017 4.8356C24.0778 5.02188 23.9316 5.33233 23.9316 5.65793C23.9316 6.138 24.2556 6.61806 24.7273 6.61806C24.8417 6.61806 24.9878 6.58777 25.1339 6.49388L25.6056 6.21523V14.1068C25.6056 14.6035 26.2393 14.8519 26.8746 14.8519C27.5083 14.8519 28.142 14.6035 28.142 14.1068V4.2465C28.142 3.78158 27.54 3.48627 27.0207 3.48627Z" fill="url(#paint2_linear)"/>
<path d="M35.3287 3.51831C33.0846 3.51831 31.3455 4.51025 31.3455 7.17713V11.2857C31.3455 13.9526 33.0846 14.9445 35.3287 14.9445C37.5729 14.9445 39.3295 13.9526 39.3295 11.2857V7.17713C39.3295 4.51025 37.5729 3.51831 35.3287 3.51831ZM36.7931 11.2857C36.7931 12.3549 36.2404 12.8365 35.3287 12.8365C34.4187 12.8365 33.8819 12.3549 33.8819 11.2857V7.17713C33.8819 6.10644 34.4187 5.62637 35.3287 5.62637C36.2404 5.62637 36.7931 6.10644 36.7931 7.17713V11.2857Z" fill="url(#paint3_linear)"/>
<path d="M44.7598 3.48627C44.5819 3.48627 44.4183 3.51807 44.2897 3.5953L42.1424 4.8356C41.8168 5.02188 41.6707 5.33233 41.6707 5.65793C41.6707 6.138 41.9962 6.61806 42.468 6.61806C42.5823 6.61806 42.7284 6.58777 42.8745 6.49388L43.3463 6.21523V14.1068C43.3463 14.6035 43.98 14.8519 44.6137 14.8519C45.249 14.8519 45.8827 14.6035 45.8827 14.1068V4.2465C45.8827 3.78158 45.2807 3.48627 44.7598 3.48627Z" fill="url(#paint4_linear)"/>
<path d="M53.0692 3.51831C50.825 3.51831 49.0859 4.51025 49.0859 7.17713V11.2857C49.0859 13.9526 50.825 14.9445 53.0692 14.9445C55.3134 14.9445 57.0684 13.9526 57.0684 11.2857V7.17713C57.0684 4.51025 55.3134 3.51831 53.0692 3.51831ZM54.532 11.2857C54.532 12.3549 53.9793 12.8365 53.0692 12.8365C52.1592 12.8365 51.6223 12.3549 51.6223 11.2857V7.17713C51.6223 6.10644 52.1592 5.62637 53.0692 5.62637C53.9793 5.62637 54.532 6.10644 54.532 7.17713V11.2857Z" fill="url(#paint5_linear)"/>
<path d="M61.085 7.84778V14.1069C61.085 14.6036 61.7202 14.852 62.3539 14.852C62.9876 14.852 63.6213 14.6036 63.6213 14.1069V10.4526C62.8336 9.53484 61.9855 8.66405 61.085 7.84778Z" fill="url(#paint6_linear)"/>
<path d="M13.1268 17.1235C12.7837 17.8701 12.474 18.6334 12.1993 19.4103C12.3422 19.6496 12.4184 19.9661 12.4184 20.3644V24.473C12.4184 25.5421 11.8657 26.0237 10.9541 26.0237C10.8842 26.0237 10.8175 26.0207 10.7524 26.0146C10.6873 26.7113 10.6508 27.4155 10.6428 28.1242C10.7445 28.1303 10.8493 28.1318 10.9541 28.1318C13.1983 28.1318 14.9548 27.1398 14.9548 24.473V20.3644C14.9548 18.6561 14.2354 17.6354 13.1268 17.1235Z" fill="url(#paint7_linear)"/>
<path d="M20.3866 16.6738C20.2072 16.6738 20.0452 16.7056 19.9149 16.7829L17.7676 18.0232C17.4436 18.2094 17.2959 18.5184 17.2959 18.844C17.2959 19.3255 17.6215 19.8056 18.0932 19.8056C18.2076 19.8056 18.3537 19.7753 18.4998 19.6814L18.9715 19.4028V27.2943C18.9715 27.7911 19.6052 28.0379 20.2389 28.0379C20.8742 28.0379 21.5079 27.7911 21.5079 27.2943V17.4341C21.5079 16.9691 20.906 16.6738 20.3866 16.6738Z" fill="url(#paint8_linear)"/>
<path d="M28.6947 16.7056C26.4505 16.7056 24.7114 17.6975 24.7114 20.3644V24.473C24.7114 27.1399 26.4505 28.1318 28.6947 28.1318C30.9389 28.1318 32.6954 27.1399 32.6954 24.473V20.3644C32.6954 17.6975 30.9389 16.7056 28.6947 16.7056ZM30.159 24.473C30.159 25.5422 29.6047 26.0237 28.6947 26.0237C27.7846 26.0237 27.2478 25.5422 27.2478 24.473V20.3644C27.2478 19.2937 27.7846 18.8136 28.6947 18.8136C29.6047 18.8136 30.159 19.2937 30.159 20.3644V24.473Z" fill="url(#paint9_linear)"/>
<path d="M38.1258 16.6738C37.9479 16.6738 37.7843 16.7056 37.6541 16.7829L35.5083 18.0232C35.1827 18.2094 35.0366 18.5184 35.0366 18.844C35.0366 19.3255 35.3622 19.8056 35.8339 19.8056C35.9467 19.8056 36.0944 19.7753 36.2405 19.6814L36.7122 19.4028V27.2943C36.7122 27.7911 37.3459 28.0379 37.9796 28.0379C38.6134 28.0379 39.2487 27.7911 39.2487 27.2943V17.4341C39.2487 16.9691 38.6467 16.6738 38.1258 16.6738Z" fill="url(#paint10_linear)"/>
<path d="M46.4352 16.7056C44.191 16.7056 42.4519 17.6975 42.4519 20.3644V24.473C42.4519 27.1399 44.191 28.1318 46.4352 28.1318C48.6794 28.1318 50.4344 27.1399 50.4344 24.473V20.3644C50.4344 17.6975 48.6794 16.7056 46.4352 16.7056ZM47.898 24.473C47.898 25.5422 47.3453 26.0237 46.4352 26.0237C45.5252 26.0237 44.9883 25.5422 44.9883 24.473V20.3644C44.9883 19.2937 45.5252 18.8136 46.4352 18.8136C47.3453 18.8136 47.898 19.2937 47.898 20.3644V24.473Z" fill="url(#paint11_linear)"/>
<path d="M55.8662 16.6738C55.6867 16.6738 55.5247 16.7056 55.3945 16.7829L53.2488 18.0232C52.9232 18.2094 52.7771 18.5184 52.7771 18.844C52.7771 19.3255 53.1027 19.8056 53.5728 19.8056C53.6871 19.8056 53.8333 19.7753 53.9794 19.6814L54.4511 19.4028V27.2943C54.4511 27.7911 55.0863 28.0379 55.72 28.0379C56.3537 28.0379 56.9874 27.7911 56.9874 27.2943V17.4341C56.9874 16.9691 56.3871 16.6738 55.8662 16.6738Z" fill="url(#paint12_linear)"/>
<path d="M64.1758 16.7056C61.9316 16.7056 60.1909 17.6975 60.1909 20.3644V24.473C60.1909 27.1399 61.9316 28.1318 64.1758 28.1318C66.4184 28.1318 68.1749 27.1399 68.1749 24.473V20.3644C68.1749 17.6975 66.4184 16.7056 64.1758 16.7056ZM65.6385 24.473C65.6385 25.5422 65.0858 26.0237 64.1758 26.0237C63.2641 26.0237 62.7273 25.5422 62.7273 24.473V20.3644C62.7273 19.2937 63.2641 18.8136 64.1758 18.8136C65.0858 18.8136 65.6385 19.2937 65.6385 20.3644V24.473Z" fill="url(#paint13_linear)"/>
<path d="M17.5898 29.8931C15.3457 29.8931 13.605 30.885 13.605 33.5519V37.6604C13.605 40.3273 15.3457 41.3192 17.5898 41.3192C19.8324 41.3192 21.589 40.3273 21.589 37.6604V33.5519C21.589 30.885 19.8324 29.8931 17.5898 29.8931ZM19.0526 37.6604C19.0526 38.7296 18.4999 39.2097 17.5898 39.2097C16.6782 39.2097 16.1414 38.7296 16.1414 37.6604V33.5519C16.1414 32.4812 16.6782 32.0011 17.5898 32.0011C18.4999 32.0011 19.0526 32.4812 19.0526 33.5519V37.6604Z" fill="url(#paint14_linear)"/>
<path d="M27.0207 29.8612C26.8412 29.8612 26.6792 29.893 26.549 29.9702L24.4017 31.2105C24.0778 31.3968 23.9316 31.7057 23.9316 32.0313C23.9316 32.5129 24.2556 32.993 24.7273 32.993C24.8417 32.993 24.9878 32.9627 25.1339 32.8688L25.6056 32.5902V40.4817C25.6056 40.9784 26.2393 41.2253 26.8746 41.2253C27.5083 41.2253 28.142 40.9784 28.142 40.4817V30.6214C28.142 30.1565 27.54 29.8612 27.0207 29.8612Z" fill="url(#paint15_linear)"/>
<path d="M35.3287 29.8931C33.0846 29.8931 31.3455 30.885 31.3455 33.5519V37.6604C31.3455 40.3273 33.0846 41.3192 35.3287 41.3192C37.5729 41.3192 39.3295 40.3273 39.3295 37.6604V33.5519C39.3295 30.885 37.5729 29.8931 35.3287 29.8931ZM36.7931 37.6604C36.7931 38.7296 36.2404 39.2097 35.3287 39.2097C34.4187 39.2097 33.8819 38.7296 33.8819 37.6604V33.5519C33.8819 32.4812 34.4187 32.0011 35.3287 32.0011C36.2404 32.0011 36.7931 32.4812 36.7931 33.5519V37.6604Z" fill="url(#paint16_linear)"/>
<path d="M44.7596 29.8612C44.5817 29.8612 44.4181 29.893 44.2894 29.9702L42.1421 31.2105C41.8165 31.3968 41.6704 31.7057 41.6704 32.0313C41.6704 32.5129 41.996 32.993 42.4677 32.993C42.5821 32.993 42.7282 32.9627 42.8743 32.8688L43.346 32.5902V40.4817C43.346 40.9784 43.9797 41.2253 44.6134 41.2253C45.2487 41.2253 45.8824 40.9784 45.8824 40.4817V30.6214C45.8824 30.1565 45.2805 29.8612 44.7596 29.8612Z" fill="url(#paint17_linear)"/>
<path d="M53.0692 29.8931C50.825 29.8931 49.0859 30.885 49.0859 33.5519V37.6604C49.0859 40.3273 50.825 41.3192 53.0692 41.3192C55.3134 41.3192 57.0684 40.3273 57.0684 37.6604V33.5519C57.0684 30.885 55.3134 29.8931 53.0692 29.8931ZM54.532 37.6604C54.532 38.7296 53.9793 39.2097 53.0692 39.2097C52.1592 39.2097 51.6223 38.7296 51.6223 37.6604V33.5519C51.6223 32.4812 52.1592 32.0011 53.0692 32.0011C53.9793 32.0011 54.532 32.4812 54.532 33.5519V37.6604Z" fill="url(#paint18_linear)"/>
<path d="M62.5003 29.8612C62.3208 29.8612 62.1588 29.893 62.0286 29.9702L59.8828 31.2105C59.5573 31.3968 59.4111 31.7057 59.4111 32.0313C59.4111 32.5129 59.7367 32.993 60.2084 32.993C60.3212 32.993 60.4673 32.9627 60.6134 32.8688L61.0851 32.5902V40.4817C61.0851 40.9784 61.7204 41.2253 62.3542 41.2253C62.9879 41.2253 63.6216 40.9784 63.6216 40.4817V30.6214C63.6216 30.1565 63.0212 29.8612 62.5003 29.8612Z" fill="url(#paint19_linear)"/>
<path d="M66.825 33.5518V37.6604C66.825 38.8129 67.1505 39.6534 67.7017 40.2349C68.3783 38.8159 68.9373 37.3348 69.363 35.8022V33.5518C69.363 32.7901 69.6346 32.3267 70.119 32.1237C70.2174 31.3953 70.2857 30.6563 70.3239 29.9112C68.3195 30.0475 66.825 31.0818 66.825 33.5518Z" fill="url(#paint20_linear)"/>
<path d="M20.3866 43.0487C20.2072 43.0487 20.0452 43.079 19.9149 43.1577L17.7676 44.398C17.4436 44.5843 17.2959 44.8933 17.2959 45.2189C17.2959 45.7004 17.6215 46.1805 18.0932 46.1805C18.2076 46.1805 18.3537 46.1502 18.4998 46.0563L18.9715 45.7777V48.2038C19.7704 48.9973 20.6169 49.7469 21.5079 50.4466V43.8089C21.5079 43.3425 20.906 43.0487 20.3866 43.0487Z" fill="url(#paint21_linear)"/>
<path d="M28.6947 43.0789C26.4505 43.0789 24.7114 44.0724 24.7114 46.7393V50.8479C24.7114 53.5132 26.4505 54.5067 28.6947 54.5067C30.9389 54.5067 32.6954 53.5132 32.6954 50.8479V46.7393C32.6954 44.0724 30.9389 43.0789 28.6947 43.0789ZM30.159 50.8479C30.159 51.917 29.6047 52.3971 28.6947 52.3971C27.7846 52.3971 27.2478 51.917 27.2478 50.8479V46.7393C27.2478 45.6686 27.7846 45.1885 28.6947 45.1885C29.6047 45.1885 30.159 45.6686 30.159 46.7393V50.8479Z" fill="url(#paint22_linear)"/>
<path d="M38.1258 43.0487C37.9479 43.0487 37.7843 43.079 37.6541 43.1577L35.5083 44.398C35.1827 44.5843 35.0366 44.8933 35.0366 45.2188C35.0366 45.7004 35.3622 46.1805 35.8339 46.1805C35.9467 46.1805 36.0944 46.1502 36.2405 46.0563L36.7122 45.7777V53.6692C36.7122 54.1645 37.3459 54.4128 37.9796 54.4128C38.6134 54.4128 39.2487 54.1645 39.2487 53.6692V43.8089C39.2487 43.3425 38.6467 43.0487 38.1258 43.0487Z" fill="url(#paint23_linear)"/>
<path d="M46.4352 43.0789C44.191 43.0789 42.4519 44.0724 42.4519 46.7393V50.8479C42.4519 53.5132 44.191 54.5067 46.4352 54.5067C48.6794 54.5067 50.4344 53.5132 50.4344 50.8479V46.7393C50.4344 44.0724 48.6794 43.0789 46.4352 43.0789ZM47.898 50.8479C47.898 51.917 47.3453 52.3971 46.4352 52.3971C45.5252 52.3971 44.9883 51.917 44.9883 50.8479V46.7393C44.9883 45.6686 45.5252 45.1885 46.4352 45.1885C47.3453 45.1885 47.898 45.6686 47.898 46.7393V50.8479Z" fill="url(#paint24_linear)"/>
<path d="M55.8662 43.0487C55.6867 43.0487 55.5247 43.079 55.3945 43.1577L53.2488 44.398C52.9232 44.5843 52.7771 44.8933 52.7771 45.2188C52.7771 45.7004 53.1027 46.1805 53.5728 46.1805C53.6871 46.1805 53.8333 46.1502 53.9794 46.0563L54.4511 45.7777V53.6692C54.4511 54.1645 55.0863 54.4128 55.72 54.4128C55.9392 54.4128 56.3477 54.3325 56.3477 54.3325C56.5677 53.6542 56.9874 52.9735 56.9874 52.9735V43.8089C56.9874 43.3425 56.3871 43.0487 55.8662 43.0487Z" fill="url(#paint25_linear)"/>
<path d="M64.1758 43.0789C61.9316 43.0789 60.1909 44.0724 60.1909 46.7393V49.8771C61.0851 49.1305 61.9332 48.3324 62.7273 47.4874V46.7393C62.7273 45.6686 63.2641 45.1885 64.1758 45.1885C64.3425 45.1885 64.4982 45.2052 64.6395 45.2385C65.1081 44.6251 65.5512 43.9936 65.9689 43.3455C65.4321 43.1622 64.8238 43.0789 64.1758 43.0789Z" fill="url(#paint26_linear)"/>
<path d="M40.5001 77.2348C31.9531 77.2348 25.0244 70.6282 25.0244 62.4784V58.6762H55.9758V62.4784C55.9758 70.6282 49.0472 77.2348 40.5001 77.2348Z" fill="url(#paint27_linear)"/>
<path d="M37.3157 56.686V55.0462C37.3157 53.8576 36.3051 52.8941 35.0586 52.8941H33.2036C31.957 52.8941 30.9465 53.8577 30.9465 55.0462V56.686C30.9465 57.8747 31.9571 58.8382 33.2036 58.8382H35.0586C36.3051 58.8383 37.3157 57.8747 37.3157 56.686Z" fill="url(#paint28_linear)"/>
<path d="M43.6848 56.686V55.0462C43.6848 53.8576 42.6742 52.8941 41.4278 52.8941H39.5727C38.3261 52.8941 37.3157 53.8577 37.3157 55.0462V56.686C37.3157 57.8747 38.3263 58.8382 39.5727 58.8382H41.4278C42.6744 58.8383 43.6848 57.8747 43.6848 56.686Z" fill="url(#paint29_linear)"/>
<path d="M50.0542 56.686V55.0462C50.0542 53.8576 49.0436 52.8941 47.7972 52.8941H45.9421C44.6955 52.8941 43.6851 53.8577 43.6851 55.0462V56.686C43.6851 57.8747 44.6957 58.8382 45.9421 58.8382H47.7972C49.0436 58.8383 50.0542 57.8747 50.0542 56.686Z" fill="url(#paint30_linear)"/>
<path d="M23.9099 57.29V60.5643C23.9099 61.3135 24.7237 61.9516 25.8366 62.0807C30.1558 62.5815 35.1619 62.868 40.5001 62.868C45.8385 62.868 50.8444 62.5815 55.1636 62.0807C56.2765 61.9516 57.0903 61.3135 57.0903 60.5643V57.29C57.0903 56.3421 55.8112 55.6193 54.4005 55.7719C50.2592 56.2201 45.5277 56.4745 40.5001 56.4745C35.4726 56.4745 30.7412 56.2199 26.5997 55.7719C25.1891 55.6193 23.9099 56.3421 23.9099 57.29Z" fill="url(#paint31_linear)"/>
<path d="M23.9099 65.2509V68.5252C23.9099 69.2744 24.7237 69.9126 25.8366 70.0416C30.1558 70.5424 35.1619 70.8289 40.5001 70.8289C45.8385 70.8289 50.8444 70.5424 55.1636 70.0416C56.2765 69.9126 57.0903 69.2744 57.0903 68.5252V65.2509C57.0903 64.3032 55.8112 63.5802 54.4005 63.7329C50.2592 64.181 45.5277 64.4354 40.5001 64.4354C35.4726 64.4354 30.7412 64.1808 26.5997 63.7329C25.1891 63.5802 23.9099 64.3032 23.9099 65.2509Z" fill="url(#paint32_linear)"/>
<path d="M34.9513 47.5663H33.3304C32.4008 47.5663 31.6472 46.8477 31.6472 45.9614V44.4158C31.6472 43.5294 32.4008 42.8108 33.3304 42.8108H34.9513C35.8809 42.8108 36.6345 43.5294 36.6345 44.4158V45.9614C36.6347 46.8477 35.8811 47.5663 34.9513 47.5663Z" fill="url(#paint33_linear)"/>
<path d="M41.3108 47.5663H39.6898C38.7602 47.5663 38.0066 46.8477 38.0066 45.9614V44.4158C38.0066 43.5294 38.7602 42.8108 39.6898 42.8108H41.3108C42.2404 42.8108 42.994 43.5294 42.994 44.4158V45.9614C42.994 46.8477 42.2404 47.5663 41.3108 47.5663Z" fill="url(#paint34_linear)"/>
<path d="M47.6694 47.5663H46.0485C45.1189 47.5663 44.3652 46.8477 44.3652 45.9614V44.4158C44.3652 43.5294 45.1189 42.8108 46.0485 42.8108H47.6694C48.599 42.8108 49.3527 43.5294 49.3527 44.4158V45.9614C49.3528 46.8477 48.5992 47.5663 47.6694 47.5663Z" fill="url(#paint35_linear)"/>
<path d="M40.5001 55.0061C55.6407 55.0061 67.9146 43.3028 67.9146 28.866C67.9146 14.4293 55.6407 2.72595 40.5001 2.72595C25.3596 2.72595 13.0857 14.4293 13.0857 28.866C13.0857 43.3028 25.3596 55.0061 40.5001 55.0061Z" fill="url(#paint36_linear)"/>
<path d="M74.2625 31.7167H78.0106C79.6617 31.7167 81.0001 30.4405 81.0001 28.8661C81.0001 27.2918 79.6617 26.0156 78.0106 26.0156H74.2625C72.6114 26.0156 71.2729 27.2918 71.2729 28.8661C71.2729 30.4405 72.6115 31.7167 74.2625 31.7167Z" fill="url(#paint37_linear)"/>
<path d="M2.98954 31.7167H6.73763C8.38876 31.7167 9.72717 30.4405 9.72717 28.8661C9.72717 27.2918 8.38876 26.0156 6.73763 26.0156H2.98954C1.33841 26.0156 0 27.2918 0 28.8661C0 30.4405 1.33841 31.7167 2.98954 31.7167Z" fill="url(#paint38_linear)"/>
<path d="M62.2597 53.6456L64.9099 56.1727C66.0774 57.2859 67.9703 57.2859 69.1378 56.1727C70.3053 55.0594 70.3053 53.2546 69.1378 52.1413L66.4875 49.6142C65.32 48.501 63.4272 48.501 62.2597 49.6142C61.0922 50.7275 61.0922 52.5323 62.2597 53.6456Z" fill="url(#paint39_linear)"/>
<path d="M11.8622 5.59162L14.5125 8.11871C15.68 9.23195 17.5728 9.23195 18.7403 8.11871C19.9078 7.00547 19.9078 5.2006 18.7403 4.08736L16.0901 1.56027C14.9226 0.447032 13.0297 0.447032 11.8622 1.56027C10.6947 2.67366 10.6947 4.47853 11.8622 5.59162Z" fill="url(#paint40_linear)"/>
<path d="M18.7403 53.6456L16.0901 56.1727C14.9226 57.2859 13.0297 57.2859 11.8622 56.1727C10.6947 55.0594 10.6947 53.2546 11.8622 52.1413L14.5125 49.6142C15.68 48.501 17.5728 48.501 18.7403 49.6142C19.9078 50.7275 19.9078 52.5323 18.7403 53.6456Z" fill="url(#paint41_linear)"/>
<path d="M69.1382 5.59162L66.4878 8.11871C65.3203 9.23195 63.4274 9.23195 62.2599 8.11871C61.0924 7.00547 61.0924 5.2006 62.2599 4.08736L64.9102 1.56027C66.0778 0.447032 67.9706 0.447032 69.1382 1.56027C70.3057 2.67366 70.3057 4.47853 69.1382 5.59162Z" fill="url(#paint42_linear)"/>
<defs>
<linearGradient id="paint0_linear" x1="26.1361" y1="17.8358" x2="55.5804" y2="48.7155" gradientUnits="userSpaceOnUse">
<stop stop-color="#FFDA2D"/>
<stop offset="1" stop-color="#FDBF00"/>
</linearGradient>
<linearGradient id="paint1_linear" x1="23.7738" y1="15.6732" x2="58.5045" y2="52.0965" gradientUnits="userSpaceOnUse">
<stop stop-color="#FF9100" stop-opacity="0"/>
<stop offset="1" stop-color="#FF9100"/>
</linearGradient>
<linearGradient id="paint2_linear" x1="28.7312" y1="10.9464" x2="63.4618" y2="47.3694" gradientUnits="userSpaceOnUse">
<stop stop-color="#FF9100" stop-opacity="0"/>
<stop offset="1" stop-color="#FF9100"/>
</linearGradient>
<linearGradient id="paint3_linear" x1="32.9318" y1="6.94118" x2="67.6624" y2="43.3646" gradientUnits="userSpaceOnUse">
<stop stop-color="#FF9100" stop-opacity="0"/>
<stop offset="1" stop-color="#FF9100"/>
</linearGradient>
<linearGradient id="paint4_linear" x1="37.6016" y1="2.48842" x2="72.3319" y2="38.9124" gradientUnits="userSpaceOnUse">
<stop stop-color="#FF9100" stop-opacity="0"/>
<stop offset="1" stop-color="#FF9100"/>
</linearGradient>
<linearGradient id="paint5_linear" x1="41.8019" y1="-1.5165" x2="76.5325" y2="34.9069" gradientUnits="userSpaceOnUse">
<stop stop-color="#FF9100" stop-opacity="0"/>
<stop offset="1" stop-color="#FF9100"/>
</linearGradient>
<linearGradient id="paint6_linear" x1="44.8339" y1="-4.4078" x2="79.5647" y2="32.0154" gradientUnits="userSpaceOnUse">
<stop stop-color="#FF9100" stop-opacity="0"/>
<stop offset="1" stop-color="#FF9100"/>
</linearGradient>
<linearGradient id="paint7_linear" x1="14.2476" y1="24.7568" x2="48.9782" y2="61.1799" gradientUnits="userSpaceOnUse">
<stop stop-color="#FF9100" stop-opacity="0"/>
<stop offset="1" stop-color="#FF9100"/>
</linearGradient>
<linearGradient id="paint8_linear" x1="18.499" y1="20.7029" x2="53.2294" y2="57.1268" gradientUnits="userSpaceOnUse">
<stop stop-color="#FF9100" stop-opacity="0"/>
<stop offset="1" stop-color="#FF9100"/>
</linearGradient>
<linearGradient id="paint9_linear" x1="22.6996" y1="16.6975" x2="57.4303" y2="53.121" gradientUnits="userSpaceOnUse">
<stop stop-color="#FF9100" stop-opacity="0"/>
<stop offset="1" stop-color="#FF9100"/>
</linearGradient>
<linearGradient id="paint10_linear" x1="27.3693" y1="12.245" x2="62.0997" y2="48.6689" gradientUnits="userSpaceOnUse">
<stop stop-color="#FF9100" stop-opacity="0"/>
<stop offset="1" stop-color="#FF9100"/>
</linearGradient>
<linearGradient id="paint11_linear" x1="31.5695" y1="8.23985" x2="66.3002" y2="44.6638" gradientUnits="userSpaceOnUse">
<stop stop-color="#FF9100" stop-opacity="0"/>
<stop offset="1" stop-color="#FF9100"/>
</linearGradient>
<linearGradient id="paint12_linear" x1="36.2395" y1="3.78763" x2="70.9699" y2="40.2106" gradientUnits="userSpaceOnUse">
<stop stop-color="#FF9100" stop-opacity="0"/>
<stop offset="1" stop-color="#FF9100"/>
</linearGradient>
<linearGradient id="paint13_linear" x1="40.4397" y1="-0.217837" x2="75.1702" y2="36.2056" gradientUnits="userSpaceOnUse">
<stop stop-color="#FF9100" stop-opacity="0"/>
<stop offset="1" stop-color="#FF9100"/>
</linearGradient>
<linearGradient id="paint14_linear" x1="10.2316" y1="28.5863" x2="44.9619" y2="65.0097" gradientUnits="userSpaceOnUse">
<stop stop-color="#FF9100" stop-opacity="0"/>
<stop offset="1" stop-color="#FF9100"/>
</linearGradient>
<linearGradient id="paint15_linear" x1="14.9011" y1="24.1337" x2="49.6316" y2="60.5567" gradientUnits="userSpaceOnUse">
<stop stop-color="#FF9100" stop-opacity="0"/>
<stop offset="1" stop-color="#FF9100"/>
</linearGradient>
<linearGradient id="paint16_linear" x1="19.1015" y1="20.1285" x2="53.832" y2="56.5519" gradientUnits="userSpaceOnUse">
<stop stop-color="#FF9100" stop-opacity="0"/>
<stop offset="1" stop-color="#FF9100"/>
</linearGradient>
<linearGradient id="paint17_linear" x1="23.7708" y1="15.6758" x2="58.5012" y2="52.0998" gradientUnits="userSpaceOnUse">
<stop stop-color="#FF9100" stop-opacity="0"/>
<stop offset="1" stop-color="#FF9100"/>
</linearGradient>
<linearGradient id="paint18_linear" x1="27.9716" y1="11.6708" x2="62.7021" y2="48.0943" gradientUnits="userSpaceOnUse">
<stop stop-color="#FF9100" stop-opacity="0"/>
<stop offset="1" stop-color="#FF9100"/>
</linearGradient>
<linearGradient id="paint19_linear" x1="32.6407" y1="7.21847" x2="67.3709" y2="43.6424" gradientUnits="userSpaceOnUse">
<stop stop-color="#FF9100" stop-opacity="0"/>
<stop offset="1" stop-color="#FF9100"/>
</linearGradient>
<linearGradient id="paint20_linear" x1="36.2203" y1="3.80504" x2="70.9509" y2="40.2289" gradientUnits="userSpaceOnUse">
<stop stop-color="#FF9100" stop-opacity="0"/>
<stop offset="1" stop-color="#FF9100"/>
</linearGradient>
<linearGradient id="paint21_linear" x1="6.161" y1="32.4672" x2="40.8916" y2="68.8912" gradientUnits="userSpaceOnUse">
<stop stop-color="#FF9100" stop-opacity="0"/>
<stop offset="1" stop-color="#FF9100"/>
</linearGradient>
<linearGradient id="paint22_linear" x1="8.86967" y1="29.8846" x2="43.6004" y2="66.308" gradientUnits="userSpaceOnUse">
<stop stop-color="#FF9100" stop-opacity="0"/>
<stop offset="1" stop-color="#FF9100"/>
</linearGradient>
<linearGradient id="paint23_linear" x1="13.5392" y1="25.4321" x2="48.2697" y2="61.856" gradientUnits="userSpaceOnUse">
<stop stop-color="#FF9100" stop-opacity="0"/>
<stop offset="1" stop-color="#FF9100"/>
</linearGradient>
<linearGradient id="paint24_linear" x1="17.7394" y1="21.4269" x2="52.47" y2="57.8507" gradientUnits="userSpaceOnUse">
<stop stop-color="#FF9100" stop-opacity="0"/>
<stop offset="1" stop-color="#FF9100"/>
</linearGradient>
<linearGradient id="paint25_linear" x1="22.4097" y1="16.9747" x2="57.1402" y2="53.3977" gradientUnits="userSpaceOnUse">
<stop stop-color="#FF9100" stop-opacity="0"/>
<stop offset="1" stop-color="#FF9100"/>
</linearGradient>
<linearGradient id="paint26_linear" x1="27.204" y1="12.4026" x2="61.9348" y2="48.826" gradientUnits="userSpaceOnUse">
<stop stop-color="#FF9100" stop-opacity="0"/>
<stop offset="1" stop-color="#FF9100"/>
</linearGradient>
<linearGradient id="paint27_linear" x1="35.1005" y1="55.9821" x2="48.0319" y2="74.456" gradientUnits="userSpaceOnUse">
<stop stop-color="#A6A09C"/>
<stop offset="0.994792" stop-color="#555A64"/>
</linearGradient>
<linearGradient id="paint28_linear" x1="33.6064" y1="55.2096" x2="35.6356" y2="58.0027" gradientUnits="userSpaceOnUse">
<stop stop-color="#555A64"/>
<stop offset="1" stop-color="#07485E"/>
</linearGradient>
<linearGradient id="paint29_linear" x1="39.9755" y1="55.2096" x2="42.0047" y2="58.0027" gradientUnits="userSpaceOnUse">
<stop stop-color="#555A64"/>
<stop offset="1" stop-color="#07485E"/>
</linearGradient>
<linearGradient id="paint30_linear" x1="46.3449" y1="55.2096" x2="48.3741" y2="58.0027" gradientUnits="userSpaceOnUse">
<stop stop-color="#555A64"/>
<stop offset="1" stop-color="#07485E"/>
</linearGradient>
<linearGradient id="paint31_linear" x1="40.5001" y1="57.0656" x2="40.5001" y2="62.2679" gradientUnits="userSpaceOnUse">
<stop stop-color="#555A64"/>
<stop offset="1" stop-color="#DADADA"/>
</linearGradient>
<linearGradient id="paint32_linear" x1="40.5001" y1="65.0265" x2="40.5001" y2="70.2289" gradientUnits="userSpaceOnUse">
<stop stop-color="#555A64"/>
<stop offset="1" stop-color="#C4C4C4"/>
</linearGradient>
<linearGradient id="paint33_linear" x1="33.5869" y1="44.786" x2="35.7849" y2="46.5423" gradientUnits="userSpaceOnUse">
<stop stop-color="#FF637B"/>
<stop offset="1" stop-color="#E63950"/>
</linearGradient>
<linearGradient id="paint34_linear" x1="39.9462" y1="44.786" x2="42.1442" y2="46.5424" gradientUnits="userSpaceOnUse">
<stop stop-color="#FF637B"/>
<stop offset="1" stop-color="#E63950"/>
</linearGradient>
<linearGradient id="paint35_linear" x1="46.3048" y1="44.786" x2="48.503" y2="46.5424" gradientUnits="userSpaceOnUse">
<stop stop-color="#FF637B"/>
<stop offset="1" stop-color="#E63950"/>
</linearGradient>
<linearGradient id="paint36_linear" x1="49.885" y1="43.5673" x2="25.0151" y2="0.717648" gradientUnits="userSpaceOnUse">
<stop stop-color="#FFD945" stop-opacity="0"/>
<stop offset="1" stop-color="#FBED21"/>
</linearGradient>
<linearGradient id="paint37_linear" x1="75.7052" y1="29.5417" x2="77.8377" y2="25.8677" gradientUnits="userSpaceOnUse">
<stop stop-color="#FFDA2D"/>
<stop offset="1" stop-color="#FDBF00"/>
</linearGradient>
<linearGradient id="paint38_linear" x1="4.4323" y1="29.5417" x2="6.56475" y2="25.8677" gradientUnits="userSpaceOnUse">
<stop stop-color="#FFDA2D"/>
<stop offset="1" stop-color="#FDBF00"/>
</linearGradient>
<linearGradient id="paint39_linear" x1="64.9311" y1="53.0914" x2="69.1821" y2="52.0071" gradientUnits="userSpaceOnUse">
<stop stop-color="#FFDA2D"/>
<stop offset="1" stop-color="#FDBF00"/>
</linearGradient>
<linearGradient id="paint40_linear" x1="14.5413" y1="5.04477" x2="18.7923" y2="3.96046" gradientUnits="userSpaceOnUse">
<stop stop-color="#FFDA2D"/>
<stop offset="1" stop-color="#FDBF00"/>
</linearGradient>
<linearGradient id="paint41_linear" x1="16.1199" y1="53.0915" x2="11.8689" y2="52.007" gradientUnits="userSpaceOnUse">
<stop stop-color="#FFDA2D"/>
<stop offset="1" stop-color="#FDBF00"/>
</linearGradient>
<linearGradient id="paint42_linear" x1="66.5101" y1="5.04477" x2="62.259" y2="3.96032" gradientUnits="userSpaceOnUse">
<stop stop-color="#FFDA2D"/>
<stop offset="1" stop-color="#FDBF00"/>
</linearGradient>
</defs>
</svg>
