<svg width="98" height="11" viewBox="0 0 98 11" fill="none" xmlns="http://www.w3.org/2000/svg">
<path d="M0.587617 6.292H1.49762C1.75895 5.97467 1.95962 5.58267 2.09962 5.116C2.24895 4.64 2.35162 4.14067 2.40762 3.618C2.47295 3.086 2.51028 2.55867 2.51962 2.036C2.52895 1.51333 2.53362 1.04667 2.53362 0.636H8.27362V6.292H9.51962V10.1H7.74162V8H2.36562V10.1H0.587617V6.292ZM6.18762 6.292V2.344H4.47962C4.46095 2.67067 4.43762 3.01133 4.40962 3.366C4.39095 3.71133 4.34895 4.05667 4.28362 4.402C4.22762 4.738 4.14828 5.06933 4.04562 5.396C3.94295 5.72267 3.80762 6.02133 3.63962 6.292H6.18762ZM14.3397 2.344C14.3303 2.61467 14.3163 2.904 14.2977 3.212C14.2883 3.51067 14.265 3.814 14.2277 4.122C14.1903 4.42067 14.139 4.71467 14.0737 5.004C14.0177 5.29333 13.943 5.564 13.8497 5.816C13.7377 6.11467 13.593 6.39467 13.4157 6.656C13.2477 6.908 13.0283 7.13667 12.7577 7.342C12.4963 7.54733 12.1743 7.72 11.7917 7.86C11.4183 7.99067 10.9797 8.07933 10.4757 8.126L10.1957 6.39C10.6717 6.29667 11.0403 6.166 11.3017 5.998C11.563 5.82067 11.759 5.59667 11.8897 5.326C11.9923 5.09267 12.0717 4.822 12.1277 4.514C12.193 4.206 12.2397 3.884 12.2677 3.548C12.2957 3.20267 12.3097 2.85267 12.3097 2.498C12.319 2.14333 12.3237 1.80267 12.3237 1.476V0.636H17.8537V8H15.7677V2.344H14.3397ZM22.865 5.382C22.5663 5.82067 22.3003 6.264 22.067 6.712C21.8337 7.15067 21.6097 7.58 21.395 8H19.253C19.5237 7.39333 19.799 6.838 20.079 6.334C20.359 5.83 20.6297 5.396 20.891 5.032C20.499 4.82667 20.1863 4.56533 19.953 4.248C19.7197 3.92133 19.603 3.51533 19.603 3.03C19.603 2.20867 19.897 1.57867 20.485 1.14C21.0823 0.701333 21.9037 0.482 22.949 0.482C23.1823 0.482 23.439 0.491333 23.719 0.51C24.0083 0.528666 24.293 0.556666 24.573 0.593999C24.853 0.631333 25.119 0.673333 25.371 0.719999C25.6323 0.757333 25.8517 0.799333 26.029 0.845999V8H23.943V5.382H22.865ZM23.943 2.134C23.8497 2.12467 23.705 2.11533 23.509 2.106C23.313 2.08733 23.145 2.078 23.005 2.078C22.4917 2.078 22.1417 2.16667 21.955 2.344C21.7683 2.512 21.675 2.73133 21.675 3.002C21.675 3.17 21.7123 3.31467 21.787 3.436C21.8617 3.548 21.9597 3.64133 22.081 3.716C22.2023 3.78133 22.3377 3.828 22.487 3.856C22.6363 3.884 22.7857 3.898 22.935 3.898H23.943V2.134ZM33.4381 6.46C33.5687 6.47867 33.7414 6.49733 33.9561 6.516C34.1801 6.52533 34.3854 6.53 34.5721 6.53C35.0387 6.53 35.4027 6.474 35.6641 6.362C35.9254 6.24067 36.0561 6.026 36.0561 5.718C36.0561 5.41933 35.9347 5.214 35.6921 5.102C35.4587 4.98067 35.1134 4.92 34.6561 4.92H33.4381V6.46ZM34.6141 3.52C34.9594 3.52 35.2394 3.478 35.4541 3.394C35.6687 3.30067 35.7761 3.10467 35.7761 2.806C35.7761 2.526 35.6547 2.33467 35.4121 2.232C35.1694 2.12933 34.8521 2.078 34.4601 2.078C34.3294 2.078 34.1567 2.08733 33.9421 2.106C33.7367 2.11533 33.5687 2.12933 33.4381 2.148V3.52H34.6141ZM34.5441 8.14C34.2827 8.14 34.0027 8.13067 33.7041 8.112C33.4054 8.09333 33.1114 8.06533 32.8221 8.028C32.5327 8 32.2574 7.96733 31.9961 7.93C31.7441 7.88333 31.5294 7.84133 31.3521 7.804V0.748C31.5294 0.710666 31.7441 0.678 31.9961 0.649999C32.2574 0.612666 32.5327 0.58 32.8221 0.552C33.1114 0.524 33.4054 0.505333 33.7041 0.496C34.0027 0.477333 34.2827 0.467999 34.5441 0.467999C35.1507 0.467999 35.6594 0.528666 36.0701 0.649999C36.4901 0.771333 36.8261 0.93 37.0781 1.126C37.3394 1.322 37.5261 1.54133 37.6381 1.784C37.7501 2.02667 37.8061 2.26933 37.8061 2.512C37.8061 2.83867 37.7267 3.13733 37.5681 3.408C37.4094 3.67867 37.2087 3.87467 36.9661 3.996C37.0967 4.052 37.2274 4.13133 37.3581 4.234C37.4981 4.33667 37.6241 4.46267 37.7361 4.612C37.8481 4.752 37.9367 4.92467 38.0021 5.13C38.0767 5.326 38.1141 5.55467 38.1141 5.816C38.1141 6.11467 38.0534 6.404 37.9321 6.684C37.8201 6.964 37.6241 7.21133 37.3441 7.426C37.0641 7.64067 36.6954 7.81333 36.2381 7.944C35.7807 8.07467 35.2161 8.14 34.5441 8.14ZM39.3693 0.874C39.6959 0.752667 40.0739 0.654666 40.5033 0.58C40.9326 0.505333 41.3993 0.467999 41.9033 0.467999C42.2859 0.467999 42.6593 0.505333 43.0233 0.58C43.3873 0.645333 43.7093 0.762 43.9893 0.93C44.2786 1.08867 44.5073 1.30333 44.6753 1.574C44.8526 1.83533 44.9413 2.16667 44.9413 2.568C44.9413 2.932 44.8573 3.24467 44.6893 3.506C44.5213 3.758 44.2833 3.968 43.9753 4.136C44.3859 4.31333 44.6893 4.54667 44.8853 4.836C45.0813 5.12533 45.1793 5.494 45.1793 5.942C45.1793 6.362 45.0906 6.71667 44.9133 7.006C44.7359 7.286 44.4979 7.51467 44.1993 7.692C43.9006 7.86933 43.5599 7.99533 43.1773 8.07C42.7946 8.154 42.3979 8.196 41.9873 8.196C41.7446 8.196 41.4926 8.182 41.2313 8.154C40.9699 8.13533 40.7133 8.10267 40.4613 8.056C40.2186 8.01867 39.9853 7.96733 39.7613 7.902C39.5373 7.83667 39.3366 7.76667 39.1593 7.692L39.5373 6.068C39.7333 6.14267 40.0319 6.23133 40.4333 6.334C40.8439 6.43667 41.3059 6.488 41.8193 6.488C42.6593 6.488 43.0793 6.25467 43.0793 5.788C43.0793 5.62933 43.0466 5.50333 42.9813 5.41C42.9159 5.30733 42.8273 5.228 42.7153 5.172C42.6126 5.116 42.4913 5.07867 42.3513 5.06C42.2113 5.04133 42.0713 5.032 41.9313 5.032H40.2933V3.548H41.9453C42.2813 3.548 42.5146 3.48267 42.6453 3.352C42.7853 3.212 42.8553 3.05333 42.8553 2.876C42.8553 2.69867 42.7759 2.54 42.6173 2.4C42.4679 2.25067 42.1879 2.176 41.7773 2.176C41.3666 2.176 40.9793 2.21333 40.6153 2.288C40.2513 2.36267 39.9573 2.43267 39.7333 2.498L39.3693 0.874ZM51.3689 4.374C51.3689 3.73 51.2242 3.21667 50.9349 2.834C50.6456 2.442 50.2162 2.246 49.6469 2.246C49.4602 2.246 49.2876 2.25533 49.1289 2.274C48.9702 2.28333 48.8396 2.29733 48.7369 2.316V6.082C48.8676 6.166 49.0356 6.236 49.2409 6.292C49.4556 6.348 49.6702 6.376 49.8849 6.376C50.8742 6.376 51.3689 5.70867 51.3689 4.374ZM53.4969 4.318C53.4969 4.88733 53.4269 5.40533 53.2869 5.872C53.1469 6.33867 52.9416 6.74 52.6709 7.076C52.4002 7.412 52.0642 7.67333 51.6629 7.86C51.2616 8.04667 50.7996 8.14 50.2769 8.14C49.9876 8.14 49.7169 8.112 49.4649 8.056C49.2129 8 48.9702 7.92067 48.7369 7.818V10.59H46.6509V0.888C46.8376 0.832 47.0522 0.780666 47.2949 0.733999C47.5376 0.677999 47.7896 0.631333 48.0509 0.593999C48.3216 0.556666 48.5922 0.528666 48.8629 0.51C49.1429 0.481999 49.4089 0.467999 49.6609 0.467999C50.2676 0.467999 50.8089 0.561333 51.2849 0.748C51.7609 0.925333 52.1622 1.182 52.4889 1.518C52.8156 1.84467 53.0629 2.246 53.2309 2.722C53.4082 3.198 53.4969 3.73 53.4969 4.318ZM61.9881 4.304C61.9881 4.88267 61.9041 5.41467 61.7361 5.9C61.5681 6.376 61.3255 6.78667 61.0081 7.132C60.6908 7.468 60.3081 7.72933 59.8601 7.916C59.4215 8.10267 58.9268 8.196 58.3761 8.196C57.8348 8.196 57.3401 8.10267 56.8921 7.916C56.4535 7.72933 56.0755 7.468 55.7581 7.132C55.4408 6.78667 55.1935 6.376 55.0161 5.9C54.8388 5.41467 54.7501 4.88267 54.7501 4.304C54.7501 3.72533 54.8388 3.198 55.0161 2.722C55.2028 2.246 55.4548 1.84 55.7721 1.504C56.0988 1.168 56.4815 0.906666 56.9201 0.719999C57.3681 0.533333 57.8535 0.44 58.3761 0.44C58.9081 0.44 59.3935 0.533333 59.8321 0.719999C60.2801 0.906666 60.6628 1.168 60.9801 1.504C61.2975 1.84 61.5448 2.246 61.7221 2.722C61.8995 3.198 61.9881 3.72533 61.9881 4.304ZM59.8601 4.304C59.8601 3.66 59.7295 3.156 59.4681 2.792C59.2161 2.41867 58.8521 2.232 58.3761 2.232C57.9001 2.232 57.5315 2.41867 57.2701 2.792C57.0088 3.156 56.8781 3.66 56.8781 4.304C56.8781 4.948 57.0088 5.46133 57.2701 5.844C57.5315 6.21733 57.9001 6.404 58.3761 6.404C58.8521 6.404 59.2161 6.21733 59.4681 5.844C59.7295 5.46133 59.8601 4.948 59.8601 4.304ZM63.254 4.318C63.254 3.786 63.338 3.28667 63.506 2.82C63.6834 2.344 63.9354 1.93333 64.262 1.588C64.5887 1.23333 64.9854 0.953333 65.452 0.748C65.9187 0.542666 66.4507 0.44 67.048 0.44C67.44 0.44 67.7994 0.477333 68.126 0.552C68.4527 0.617333 68.77 0.715333 69.078 0.845999L68.644 2.512C68.448 2.43733 68.2334 2.372 68 2.316C67.7667 2.26 67.5054 2.232 67.216 2.232C66.6 2.232 66.138 2.42333 65.83 2.806C65.5314 3.18867 65.382 3.69267 65.382 4.318C65.382 4.98067 65.522 5.494 65.802 5.858C66.0914 6.222 66.5907 6.404 67.3 6.404C67.552 6.404 67.8227 6.38067 68.112 6.334C68.4014 6.28733 68.6674 6.21267 68.91 6.11L69.204 7.818C68.9614 7.92067 68.658 8.00933 68.294 8.084C67.93 8.15867 67.5287 8.196 67.09 8.196C66.418 8.196 65.8394 8.098 65.354 7.902C64.8687 7.69667 64.4674 7.42133 64.15 7.076C63.842 6.73067 63.6134 6.32467 63.464 5.858C63.324 5.382 63.254 4.86867 63.254 4.318ZM73.908 2.344C73.8987 2.61467 73.8847 2.904 73.866 3.212C73.8567 3.51067 73.8334 3.814 73.796 4.122C73.7587 4.42067 73.7074 4.71467 73.642 5.004C73.586 5.29333 73.5114 5.564 73.418 5.816C73.306 6.11467 73.1614 6.39467 72.984 6.656C72.816 6.908 72.5967 7.13667 72.326 7.342C72.0647 7.54733 71.7427 7.72 71.36 7.86C70.9867 7.99067 70.548 8.07933 70.044 8.126L69.764 6.39C70.24 6.29667 70.6087 6.166 70.87 5.998C71.1314 5.82067 71.3274 5.59667 71.458 5.326C71.5607 5.09267 71.64 4.822 71.696 4.514C71.7614 4.206 71.808 3.884 71.836 3.548C71.864 3.20267 71.878 2.85267 71.878 2.498C71.8874 2.14333 71.892 1.80267 71.892 1.476V0.636H77.422V8H75.336V2.344H73.908ZM88.9574 8H86.8714V0.636H88.9574V8ZM82.5034 6.544C82.886 6.544 83.1847 6.474 83.3994 6.334C83.6234 6.18467 83.7354 5.94667 83.7354 5.62C83.7354 5.452 83.698 5.312 83.6234 5.2C83.5487 5.07867 83.446 4.98533 83.3154 4.92C83.1847 4.84533 83.0307 4.794 82.8534 4.766C82.6854 4.738 82.5034 4.724 82.3074 4.724C82.1674 4.724 82.0134 4.73333 81.8454 4.752C81.6774 4.77067 81.5514 4.78933 81.4674 4.808V6.488C81.5794 6.50667 81.7287 6.52067 81.9154 6.53C82.102 6.53933 82.298 6.544 82.5034 6.544ZM81.4674 3.254C81.598 3.21667 81.766 3.18867 81.9714 3.17C82.186 3.142 82.4287 3.128 82.6994 3.128C83.1287 3.128 83.53 3.17933 83.9034 3.282C84.286 3.38467 84.6174 3.54333 84.8974 3.758C85.1774 3.96333 85.3967 4.22933 85.5554 4.556C85.7234 4.87333 85.8074 5.24667 85.8074 5.676C85.8074 6.10533 85.7327 6.47867 85.5834 6.796C85.434 7.104 85.2194 7.36067 84.9394 7.566C84.6594 7.762 84.3234 7.90667 83.9314 8C83.5487 8.10267 83.1194 8.154 82.6434 8.154C82.0274 8.154 81.4627 8.12133 80.9494 8.056C80.436 8 79.9134 7.90667 79.3814 7.776V0.636H81.4674V3.254ZM93.8464 2.876L95.3024 0.636H97.4584L94.9384 4.178C95.4984 4.878 96.0071 5.55933 96.4644 6.222C96.9218 6.88467 97.2858 7.47733 97.5564 8H95.3164C95.2418 7.86 95.1484 7.68733 95.0364 7.482C94.9244 7.26733 94.7984 7.048 94.6584 6.824C94.5184 6.59067 94.3691 6.362 94.2104 6.138C94.0611 5.90467 93.9118 5.69467 93.7624 5.508C93.6224 5.68533 93.4778 5.88133 93.3284 6.096C93.1884 6.31067 93.0531 6.53 92.9224 6.754C92.7918 6.96867 92.6611 7.18333 92.5304 7.398C92.4091 7.61267 92.3018 7.81333 92.2084 8H90.0804C90.1924 7.76667 90.3464 7.49133 90.5424 7.174C90.7384 6.85667 90.9484 6.53 91.1724 6.194C91.4058 5.84867 91.6484 5.508 91.9004 5.172C92.1524 4.82667 92.3998 4.50467 92.6424 4.206C92.2224 3.618 91.8024 3.02533 91.3824 2.428C90.9624 1.82133 90.5471 1.224 90.1364 0.636H92.3904L93.8464 2.876Z" fill="#64B42D"/>
</svg>
