<svg width="61" height="60" viewBox="0 0 61 60" fill="none" xmlns="http://www.w3.org/2000/svg">
<path d="M42.9702 54.0833C38.7116 52.7068 35.8261 48.7417 35.8261 44.2663V40.4973H24.7251V44.2663C24.7251 48.7418 21.8397 52.7069 17.5811 54.0833H42.9702Z" fill="url(#paint0_linear)"/>
<path d="M35.8257 44.2663V40.4973H24.7246V42.9723L35.8356 54.0833H42.9697C38.7111 52.7069 35.8257 48.7418 35.8257 44.2663Z" fill="url(#paint1_linear)"/>
<path d="M56.7065 42.9725H3.84413C1.72106 42.9725 0 41.2514 0 39.1284V3.84413C0 1.72106 1.72106 0 3.84413 0H56.7065C58.8296 0 60.5506 1.72106 60.5506 3.84413V39.1284C60.5506 41.2514 58.8296 42.9725 56.7065 42.9725Z" fill="url(#paint2_linear)"/>
<path d="M54.6214 40.1381H5.92956C4.24174 40.1381 2.87354 38.7699 2.87354 37.0821V5.89068C2.87354 4.20286 4.24174 2.83466 5.92956 2.83466H54.6214C56.3092 2.83466 57.6774 4.20286 57.6774 5.89068V37.0821C57.6773 38.7699 56.3091 40.1381 54.6214 40.1381Z" fill="url(#paint3_linear)"/>
<path d="M53.1203 38.2958H7.43047C5.88026 38.2958 4.62354 37.0391 4.62354 35.4889V7.48363C4.62354 5.93342 5.88026 4.6767 7.43047 4.6767H53.1202C54.6704 4.6767 55.9271 5.93342 55.9271 7.48363V35.4888C55.9272 37.0391 54.6705 38.2958 53.1203 38.2958Z" fill="url(#paint4_linear)"/>
<path d="M21.8473 30.5378H9.45255C8.59155 30.5378 7.89355 29.8398 7.89355 28.9787V13.9946C7.89355 13.1336 8.59155 12.4356 9.45255 12.4356H21.8473C22.7083 12.4356 23.4063 13.1336 23.4063 13.9946V28.9786C23.4063 29.8396 22.7083 30.5378 21.8473 30.5378Z" fill="#BABABA"/>
<path d="M36.1431 16.9472H27.6426C27.0196 16.9472 26.5146 16.4422 26.5146 15.8193V13.5635C26.5146 12.9405 27.0196 12.4355 27.6426 12.4355H36.1431C36.7661 12.4355 37.2711 12.9405 37.2711 13.5635V15.8193C37.2711 16.4421 36.766 16.9472 36.1431 16.9472Z" fill="#BABABA"/>
<path d="M51.5295 16.9471H40.9389C40.316 16.9471 39.811 16.4422 39.811 15.8192V13.5634C39.811 12.9404 40.316 12.4355 40.9389 12.4355H51.5295C52.1525 12.4355 52.6574 12.9404 52.6574 13.5634V15.8192C52.6574 16.442 52.1525 16.9471 51.5295 16.9471Z" fill="#BABABA"/>
<path d="M47.2798 23.7423H51.5301C52.153 23.7423 52.658 23.2374 52.658 22.6144V20.3586C52.658 19.7357 52.153 19.2307 51.5301 19.2307H47.2798C46.6568 19.2307 46.1519 19.7357 46.1519 20.3586V22.6144C46.1519 23.2374 46.6569 23.7423 47.2798 23.7423Z" fill="#BABABA"/>
<path d="M27.6416 23.7424H42.4824C43.1054 23.7424 43.6103 23.2374 43.6103 22.6145V20.3587C43.6103 19.7357 43.1054 19.2308 42.4824 19.2308H27.6416C27.0186 19.2308 26.5137 19.7357 26.5137 20.3587V22.6145C26.5137 23.2374 27.0187 23.7424 27.6416 23.7424Z" fill="#BABABA"/>
<path d="M36.1422 30.5379H27.6416C27.0186 30.5379 26.5137 30.0329 26.5137 29.41V27.1541C26.5137 26.5312 27.0186 26.0262 27.6416 26.0262H36.1422C36.7651 26.0262 37.2701 26.5312 37.2701 27.1541V29.41C37.2701 30.0328 36.765 30.5379 36.1422 30.5379Z" fill="#BABABA"/>
<path d="M51.53 30.5376H40.9394C40.3165 30.5376 39.8115 30.0327 39.8115 29.4097V27.1539C39.8115 26.5309 40.3165 26.026 40.9394 26.026H51.53C52.1529 26.026 52.6579 26.5309 52.6579 27.1539V29.4097C52.6579 30.0326 52.1529 30.5376 51.53 30.5376Z" fill="#BABABA"/>
<path d="M30.2749 4.00887C30.9235 4.00887 31.4492 3.48311 31.4492 2.83454C31.4492 2.18598 30.9235 1.66022 30.2749 1.66022C29.6263 1.66022 29.1006 2.18598 29.1006 2.83454C29.1006 3.48311 29.6263 4.00887 30.2749 4.00887Z" fill="url(#paint5_linear)"/>
<path d="M30.2751 3.57165C30.6822 3.57165 31.0122 3.24165 31.0122 2.83459C31.0122 2.42752 30.6822 2.09753 30.2751 2.09753C29.8681 2.09753 29.5381 2.42752 29.5381 2.83459C29.5381 3.24165 29.8681 3.57165 30.2751 3.57165Z" fill="url(#paint6_linear)"/>
<path d="M47.8454 59.0389H12.7054C11.9665 59.0389 11.3677 58.44 11.3677 57.7012C11.3677 55.3296 13.2902 53.4071 15.6618 53.4071H44.889C47.2605 53.4071 49.1831 55.3296 49.1831 57.7012C49.1831 58.44 48.5842 59.0389 47.8454 59.0389Z" fill="url(#paint7_linear)"/>
<path d="M7.11057 41.8393H6.23829C5.73797 41.8393 5.33252 41.4338 5.33252 40.9336V40.0613C5.33252 39.561 5.73809 39.1555 6.23829 39.1555H7.11057C7.61088 39.1555 8.01634 39.5611 8.01634 40.0613V40.9336C8.01634 41.4338 7.61088 41.8393 7.11057 41.8393Z" fill="url(#paint8_linear)"/>
<defs>
<linearGradient id="paint0_linear" x1="27.048" y1="47.7192" x2="34.1551" y2="56.5696" gradientUnits="userSpaceOnUse">
<stop stop-color="#A6A09C"/>
<stop offset="1" stop-color="#555A64"/>
</linearGradient>
<linearGradient id="paint1_linear" x1="34.182" y1="49.9375" x2="31.2989" y2="37.8017" gradientUnits="userSpaceOnUse">
<stop stop-color="#A6A09C" stop-opacity="0.5"/>
<stop offset="1" stop-color="#2C2C2C"/>
</linearGradient>
<linearGradient id="paint2_linear" x1="17.8532" y1="9.06407" x2="58.4689" y2="49.6798" gradientUnits="userSpaceOnUse">
<stop stop-color="#BABABA"/>
<stop offset="1" stop-color="#2C2C2C"/>
</linearGradient>
<linearGradient id="paint3_linear" x1="50.9535" y1="42.1645" x2="2.94584" y2="-5.84319" gradientUnits="userSpaceOnUse">
<stop stop-color="#BABABA"/>
<stop offset="1" stop-color="#2C2C2C"/>
</linearGradient>
<linearGradient id="paint4_linear" x1="17.0451" y1="8.25607" x2="43.5265" y2="34.7374" gradientUnits="userSpaceOnUse">
<stop stop-color="white"/>
<stop offset="1" stop-color="#E5E5E5"/>
</linearGradient>
<linearGradient id="paint5_linear" x1="32.0365" y1="4.59609" x2="28.0274" y2="0.587059" gradientUnits="userSpaceOnUse">
<stop stop-color="#A6A09C"/>
<stop offset="1" stop-color="#555A64"/>
</linearGradient>
<linearGradient id="paint6_linear" x1="29.1696" y1="1.72913" x2="31.6856" y2="4.24519" gradientUnits="userSpaceOnUse">
<stop stop-color="#A6A09C"/>
<stop offset="1" stop-color="#555A64"/>
</linearGradient>
<linearGradient id="paint7_linear" x1="29.0862" y1="54.1696" x2="33.456" y2="66.1867" gradientUnits="userSpaceOnUse">
<stop stop-color="#A6A09C"/>
<stop offset="1" stop-color="#555A64"/>
</linearGradient>
<linearGradient id="paint8_linear" x1="6.0228" y1="39.8458" x2="8.92899" y2="42.752" gradientUnits="userSpaceOnUse">
<stop stop-color="#B9DD39"/>
<stop offset="1" stop-color="#0B799D"/>
</linearGradient>
</defs>
</svg>
